<svg version="1.1" id="Layer_1" xmlns="http://www.w3.org/2000/svg" xmlns:xlink="http://www.w3.org/1999/xlink" x="0px" y="0px"
	 width="100%" viewBox="0 0 480 480" enable-background="new 0 0 480 480" xml:space="preserve">
<path fill="#FFFFFF" opacity="1.000000" stroke="none" 
	d="
M262.000000,481.000000 
	C174.666672,481.000000 87.833336,481.000000 1.000000,481.000000 
	C1.000000,321.000000 1.000000,161.000000 1.000000,1.000000 
	C161.000000,1.000000 321.000000,1.000000 481.000000,1.000000 
	C481.000000,161.000000 481.000000,321.000000 481.000000,481.000000 
	C408.166656,481.000000 335.333344,481.000000 262.000000,481.000000 
M237.903168,283.596680 
	C278.644623,324.338623 319.386047,365.080597 359.555878,405.250916 
	C369.390961,395.419586 378.901031,385.913116 389.141876,375.676147 
	C388.059052,374.871552 386.427643,373.945221 385.147797,372.666962 
	C340.587982,328.164124 296.048798,283.640594 251.537781,239.088974 
	C238.579544,226.118927 233.772949,210.519165 237.125488,192.514557 
	C241.970642,166.494049 268.798950,147.846649 294.706909,152.365982 
	C322.650360,157.240402 341.496246,182.904053 337.233307,209.935318 
	C335.799286,219.028229 332.253357,227.083710 327.120880,234.052490 
	C336.819305,243.771729 346.318573,253.291367 355.978912,262.972443 
	C356.664642,262.241516 357.629181,261.346039 358.440918,260.328644 
	C375.015015,239.556946 381.580627,215.745117 377.741699,189.691605 
	C370.145966,138.141541 322.724670,103.363739 271.978210,112.245956 
	C237.253754,118.323830 212.754379,138.303894 200.836945,171.575226 
	C188.812302,205.145844 195.121918,236.183960 218.194077,263.452637 
	C224.094345,270.426086 230.973679,276.571136 237.903168,283.596680 
M429.648407,221.004532 
	C437.043579,155.884277 403.170715,96.218834 343.988617,70.574722 
	C288.412109,46.492947 225.406021,61.496769 190.465240,96.369682 
	C199.851196,106.153717 209.235779,115.936310 218.612152,125.710342 
	C264.440887,86.056305 330.234741,93.814911 365.963470,137.018677 
	C384.849152,159.855530 392.801819,186.329681 388.834534,215.706985 
	C383.572540,254.671295 361.448151,281.457367 325.779053,298.346222 
	C335.141205,307.625793 344.114960,316.309570 352.809418,325.264587 
	C355.473297,328.008301 357.368958,328.443573 360.779388,326.319702 
	C399.761932,302.042877 422.675659,267.288452 429.648407,221.004532 
M184.123215,197.752869 
	C185.782913,173.604050 194.389252,152.242905 209.764359,134.693695 
	C199.772903,124.758736 190.269119,115.308708 180.667221,105.761116 
	C180.157852,106.298546 179.195770,107.217766 178.341949,108.228424 
	C152.532684,138.778839 140.737488,173.912064 143.721375,213.909515 
	C146.484207,250.943512 162.019150,281.791382 188.276703,307.750793 
	C219.675323,338.792938 250.759338,370.153229 281.985962,401.369415 
	C283.364594,402.747620 284.806091,404.062927 285.593903,404.813019 
	C295.441437,394.970703 304.919098,385.498077 314.993652,375.428864 
	C314.001587,374.651581 312.421417,373.655212 311.131836,372.367798 
	C279.767426,341.053864 248.538452,309.603424 217.059341,278.405365 
	C194.840820,256.385254 183.535019,230.044235 184.123215,197.752869 
M22.199373,279.299133 
	C29.232874,286.359528 36.266373,293.419952 43.422787,300.603760 
	C76.967758,273.065033 113.758957,267.449371 153.998825,282.799286 
	C150.385498,275.115875 146.543365,267.940857 143.602676,260.413635 
	C140.648407,252.851654 138.694229,244.903381 136.025269,237.220459 
	C135.650085,236.140381 133.775803,235.076599 132.472488,234.896973 
	C96.954605,230.001892 64.022079,237.191711 33.910168,256.646027 
	C27.169189,261.001160 21.003111,266.246124 13.957352,271.543823 
	C17.100779,274.489502 19.399805,276.643890 22.199373,279.299133 
z"/>
<path fill="#01B5EF" opacity="1.000000" stroke="none" 
	d="
M237.653168,283.346741 
	C230.973679,276.571136 224.094345,270.426086 218.194077,263.452637 
	C195.121918,236.183960 188.812302,205.145844 200.836945,171.575226 
	C212.754379,138.303894 237.253754,118.323830 271.978210,112.245956 
	C322.724670,103.363739 370.145966,138.141541 377.741699,189.691605 
	C381.580627,215.745117 375.015015,239.556946 358.440918,260.328644 
	C357.629181,261.346039 356.664642,262.241516 355.978912,262.972443 
	C346.318573,253.291367 336.819305,243.771729 327.120880,234.052490 
	C332.253357,227.083710 335.799286,219.028229 337.233307,209.935318 
	C341.496246,182.904053 322.650360,157.240402 294.706909,152.365982 
	C268.798950,147.846649 241.970642,166.494049 237.125488,192.514557 
	C233.772949,210.519165 238.579544,226.118927 251.537781,239.088974 
	C296.048798,283.640594 340.587982,328.164124 385.147797,372.666962 
	C386.427643,373.945221 388.059052,374.871552 389.141876,375.676147 
	C378.901031,385.913116 369.390961,395.419586 359.555878,405.250916 
	C319.386047,365.080597 278.644623,324.338623 237.653168,283.346741 
z"/>
<path fill="#82C342" opacity="1.000000" stroke="none" 
	d="
M429.548859,221.441315 
	C422.675659,267.288452 399.761932,302.042877 360.779388,326.319702 
	C357.368958,328.443573 355.473297,328.008301 352.809418,325.264587 
	C344.114960,316.309570 335.141205,307.625793 325.779053,298.346222 
	C361.448151,281.457367 383.572540,254.671295 388.834534,215.706985 
	C392.801819,186.329681 384.849152,159.855530 365.963470,137.018677 
	C330.234741,93.814911 264.440887,86.056305 218.612152,125.710342 
	C209.235779,115.936310 199.851196,106.153717 190.465240,96.369682 
	C225.406021,61.496769 288.412109,46.492947 343.988617,70.574722 
	C403.170715,96.218834 437.043579,155.884277 429.548859,221.441315 
z"/>
<path fill="#939397" opacity="1.000000" stroke="none" 
	d="
M184.115463,198.224945 
	C183.535019,230.044235 194.840820,256.385254 217.059341,278.405365 
	C248.538452,309.603424 279.767426,341.053864 311.131836,372.367798 
	C312.421417,373.655212 314.001587,374.651581 314.993652,375.428864 
	C304.919098,385.498077 295.441437,394.970703 285.593903,404.813019 
	C284.806091,404.062927 283.364594,402.747620 281.985962,401.369415 
	C250.759338,370.153229 219.675323,338.792938 188.276703,307.750793 
	C162.019150,281.791382 146.484207,250.943512 143.721375,213.909515 
	C140.737488,173.912064 152.532684,138.778839 178.341949,108.228424 
	C179.195770,107.217766 180.157852,106.298546 180.667221,105.761116 
	C190.269119,115.308708 199.772903,124.758736 209.764359,134.693695 
	C194.389252,152.242905 185.782913,173.604050 184.115463,198.224945 
z"/>
<path fill="#82C343" opacity="1.000000" stroke="none" 
	d="
M21.949102,279.048706 
	C19.399805,276.643890 17.100779,274.489502 13.957352,271.543823 
	C21.003111,266.246124 27.169189,261.001160 33.910168,256.646027 
	C64.022079,237.191711 96.954605,230.001892 132.472488,234.896973 
	C133.775803,235.076599 135.650085,236.140381 136.025269,237.220459 
	C138.694229,244.903381 140.648407,252.851654 143.602676,260.413635 
	C146.543365,267.940857 150.385498,275.115875 153.998825,282.799286 
	C113.758957,267.449371 76.967758,273.065033 43.422787,300.603760 
	C36.266373,293.419952 29.232874,286.359528 21.949102,279.048706 
z"/>
</svg>